<svg width="1363" height="163" viewBox="0 0 1363 163" fill="none" xmlns="http://www.w3.org/2000/svg">
<path d="M0 15C0 6.71573 6.71573 0 15 0H37V163H15C6.71573 163 0 156.284 0 148V15Z" fill="#0295D0"/>
<rect width="1097" height="163" transform="translate(37)" fill="white"/>
<path d="M101.906 53.9219L94.3945 51.2383V48.0859L104.602 52.375V54.6367L101.906 53.9219ZM94.3945 56.1719L101.918 53.4297L104.602 52.7852V55.0352L94.3945 59.3242V56.1719ZM119.895 43.9375V61H116.391V43.9375H119.895ZM125.145 43.9375V46.6914H111.223V43.9375H125.145ZM132 58.1406V52.4922C132 52.0859 131.934 51.7383 131.801 51.4492C131.668 51.1523 131.461 50.9219 131.18 50.7578C130.906 50.5938 130.551 50.5117 130.113 50.5117C129.738 50.5117 129.414 50.5781 129.141 50.7109C128.867 50.8359 128.656 51.0195 128.508 51.2617C128.359 51.4961 128.285 51.7734 128.285 52.0938H124.91C124.91 51.5547 125.035 51.043 125.285 50.5586C125.535 50.0742 125.898 49.6484 126.375 49.2812C126.852 48.9062 127.418 48.6133 128.074 48.4023C128.738 48.1914 129.48 48.0859 130.301 48.0859C131.285 48.0859 132.16 48.25 132.926 48.5781C133.691 48.9062 134.293 49.3984 134.73 50.0547C135.176 50.7109 135.398 51.5312 135.398 52.5156V57.9414C135.398 58.6367 135.441 59.207 135.527 59.6523C135.613 60.0898 135.738 60.4727 135.902 60.8008V61H132.492C132.328 60.6562 132.203 60.2266 132.117 59.7109C132.039 59.1875 132 58.6641 132 58.1406ZM132.445 53.2773L132.469 55.1875H130.582C130.137 55.1875 129.75 55.2383 129.422 55.3398C129.094 55.4414 128.824 55.5859 128.613 55.7734C128.402 55.9531 128.246 56.1641 128.145 56.4062C128.051 56.6484 128.004 56.9141 128.004 57.2031C128.004 57.4922 128.07 57.7539 128.203 57.9883C128.336 58.2148 128.527 58.3945 128.777 58.5273C129.027 58.6523 129.32 58.7148 129.656 58.7148C130.164 58.7148 130.605 58.6133 130.98 58.4102C131.355 58.207 131.645 57.957 131.848 57.6602C132.059 57.3633 132.168 57.082 132.176 56.8164L133.066 58.2461C132.941 58.5664 132.77 58.8984 132.551 59.2422C132.34 59.5859 132.07 59.9102 131.742 60.2148C131.414 60.5117 131.02 60.7578 130.559 60.9531C130.098 61.1406 129.551 61.2344 128.918 61.2344C128.113 61.2344 127.383 61.0742 126.727 60.7539C126.078 60.4258 125.562 59.9766 125.18 59.4062C124.805 58.8281 124.617 58.1719 124.617 57.4375C124.617 56.7734 124.742 56.1836 124.992 55.668C125.242 55.1523 125.609 54.7188 126.094 54.3672C126.586 54.0078 127.199 53.7383 127.934 53.5586C128.668 53.3711 129.52 53.2773 130.488 53.2773H132.445ZM144.855 57.4961C144.855 57.2539 144.785 57.0352 144.645 56.8398C144.504 56.6445 144.242 56.4648 143.859 56.3008C143.484 56.1289 142.941 55.9727 142.23 55.832C141.59 55.6914 140.992 55.5156 140.438 55.3047C139.891 55.0859 139.414 54.8242 139.008 54.5195C138.609 54.2148 138.297 53.8555 138.07 53.4414C137.844 53.0195 137.73 52.5391 137.73 52C137.73 51.4688 137.844 50.9688 138.07 50.5C138.305 50.0312 138.637 49.6172 139.066 49.2578C139.504 48.8906 140.035 48.6055 140.66 48.4023C141.293 48.1914 142.004 48.0859 142.793 48.0859C143.895 48.0859 144.84 48.2617 145.629 48.6133C146.426 48.9648 147.035 49.4492 147.457 50.0664C147.887 50.6758 148.102 51.3711 148.102 52.1523H144.727C144.727 51.8242 144.656 51.5312 144.516 51.2734C144.383 51.0078 144.172 50.8008 143.883 50.6523C143.602 50.4961 143.234 50.418 142.781 50.418C142.406 50.418 142.082 50.4844 141.809 50.6172C141.535 50.7422 141.324 50.9141 141.176 51.1328C141.035 51.3438 140.965 51.5781 140.965 51.8359C140.965 52.0312 141.004 52.207 141.082 52.3633C141.168 52.5117 141.305 52.6484 141.492 52.7734C141.68 52.8984 141.922 53.0156 142.219 53.125C142.523 53.2266 142.898 53.3203 143.344 53.4062C144.258 53.5938 145.074 53.8398 145.793 54.1445C146.512 54.4414 147.082 54.8477 147.504 55.3633C147.926 55.8711 148.137 56.5391 148.137 57.3672C148.137 57.9297 148.012 58.4453 147.762 58.9141C147.512 59.3828 147.152 59.793 146.684 60.1445C146.215 60.4883 145.652 60.7578 144.996 60.9531C144.348 61.1406 143.617 61.2344 142.805 61.2344C141.625 61.2344 140.625 61.0234 139.805 60.6016C138.992 60.1797 138.375 59.6445 137.953 58.9961C137.539 58.3398 137.332 57.668 137.332 56.9805H140.531C140.547 57.4414 140.664 57.8125 140.883 58.0938C141.109 58.375 141.395 58.5781 141.738 58.7031C142.09 58.8281 142.469 58.8906 142.875 58.8906C143.312 58.8906 143.676 58.832 143.965 58.7148C144.254 58.5898 144.473 58.4258 144.621 58.2227C144.777 58.0117 144.855 57.7695 144.855 57.4961ZM153.703 42.9883V61H150.328V42.9883H153.703ZM161.695 48.3203L156.188 54.6016L153.234 57.5898L152.004 55.1523L154.348 52.1758L157.641 48.3203H161.695ZM158.191 61L154.441 55.1406L156.773 53.1016L162.082 61H158.191ZM170.988 43.9375V61H167.484V43.9375H170.988ZM176.238 43.9375V46.6914H162.316V43.9375H176.238ZM181.594 48.3203V61H178.207V48.3203H181.594ZM177.996 45.0156C177.996 44.5234 178.168 44.1172 178.512 43.7969C178.855 43.4766 179.316 43.3164 179.895 43.3164C180.465 43.3164 180.922 43.4766 181.266 43.7969C181.617 44.1172 181.793 44.5234 181.793 45.0156C181.793 45.5078 181.617 45.9141 181.266 46.2344C180.922 46.5547 180.465 46.7148 179.895 46.7148C179.316 46.7148 178.855 46.5547 178.512 46.2344C178.168 45.9141 177.996 45.5078 177.996 45.0156ZM189.621 58.5977C190.035 58.5977 190.402 58.5195 190.723 58.3633C191.043 58.1992 191.293 57.9727 191.473 57.6836C191.66 57.3867 191.758 57.0391 191.766 56.6406H194.941C194.934 57.5312 194.695 58.3242 194.227 59.0195C193.758 59.707 193.129 60.25 192.34 60.6484C191.551 61.0391 190.668 61.2344 189.691 61.2344C188.707 61.2344 187.848 61.0703 187.113 60.7422C186.387 60.4141 185.781 59.9609 185.297 59.3828C184.812 58.7969 184.449 58.1172 184.207 57.3438C183.965 56.5625 183.844 55.7266 183.844 54.8359V54.4961C183.844 53.5977 183.965 52.7617 184.207 51.9883C184.449 51.207 184.812 50.5273 185.297 49.9492C185.781 49.3633 186.387 48.9062 187.113 48.5781C187.84 48.25 188.691 48.0859 189.668 48.0859C190.707 48.0859 191.617 48.2852 192.398 48.6836C193.188 49.082 193.805 49.6523 194.25 50.3945C194.703 51.1289 194.934 52 194.941 53.0078H191.766C191.758 52.5859 191.668 52.2031 191.496 51.8594C191.332 51.5156 191.09 51.2422 190.77 51.0391C190.457 50.8281 190.07 50.7227 189.609 50.7227C189.117 50.7227 188.715 50.8281 188.402 51.0391C188.09 51.2422 187.848 51.5234 187.676 51.8828C187.504 52.2344 187.383 52.6367 187.312 53.0898C187.25 53.5352 187.219 54.0039 187.219 54.4961V54.8359C187.219 55.3281 187.25 55.8008 187.312 56.2539C187.375 56.707 187.492 57.1094 187.664 57.4609C187.844 57.8125 188.09 58.0898 188.402 58.293C188.715 58.4961 189.121 58.5977 189.621 58.5977ZM200.273 42.9883V61H196.898V42.9883H200.273ZM208.266 48.3203L202.758 54.6016L199.805 57.5898L198.574 55.1523L200.918 52.1758L204.211 48.3203H208.266ZM204.762 61L201.012 55.1406L203.344 53.1016L208.652 61H204.762Z" fill="#00327E" fill-opacity="0.77"/>
<path d="M106.688 119H99.1172L99.1641 112.672H106.688C108.25 112.672 109.57 112.297 110.648 111.547C111.742 110.797 112.57 109.68 113.133 108.195C113.711 106.695 114 104.852 114 102.664V101.188C114 99.5469 113.836 98.1094 113.508 96.875C113.195 95.625 112.727 94.5859 112.102 93.7578C111.477 92.9141 110.695 92.2812 109.758 91.8594C108.836 91.4375 107.773 91.2266 106.57 91.2266H98.9766V84.875H106.57C108.883 84.875 111 85.2734 112.922 86.0703C114.859 86.8516 116.531 87.9766 117.938 89.4453C119.359 90.8984 120.453 92.625 121.219 94.625C122 96.6094 122.391 98.8125 122.391 101.234V102.664C122.391 105.07 122 107.273 121.219 109.273C120.453 111.273 119.367 113 117.961 114.453C116.555 115.906 114.891 117.031 112.969 117.828C111.062 118.609 108.969 119 106.688 119ZM103.828 84.875V119H95.6016V84.875H103.828ZM138.586 119.469C136.523 119.469 134.68 119.148 133.055 118.508C131.43 117.852 130.055 116.953 128.93 115.812C127.82 114.672 126.969 113.359 126.375 111.875C125.797 110.391 125.508 108.82 125.508 107.164V106.273C125.508 104.414 125.766 102.695 126.281 101.117C126.797 99.5234 127.562 98.1328 128.578 96.9453C129.594 95.7578 130.867 94.8359 132.398 94.1797C133.93 93.5078 135.711 93.1719 137.742 93.1719C139.539 93.1719 141.148 93.4609 142.57 94.0391C143.992 94.6172 145.195 95.4453 146.18 96.5234C147.18 97.6016 147.938 98.9062 148.453 100.438C148.984 101.969 149.25 103.688 149.25 105.594V108.805H128.531V103.859H141.539V103.25C141.555 102.406 141.406 101.688 141.094 101.094C140.797 100.5 140.359 100.047 139.781 99.7344C139.203 99.4219 138.5 99.2656 137.672 99.2656C136.812 99.2656 136.102 99.4531 135.539 99.8281C134.992 100.203 134.562 100.719 134.25 101.375C133.953 102.016 133.742 102.758 133.617 103.602C133.492 104.445 133.43 105.336 133.43 106.273V107.164C133.43 108.102 133.555 108.953 133.805 109.719C134.07 110.484 134.445 111.141 134.93 111.688C135.43 112.219 136.023 112.633 136.711 112.93C137.414 113.227 138.211 113.375 139.102 113.375C140.18 113.375 141.242 113.172 142.289 112.766C143.336 112.359 144.234 111.688 144.984 110.75L148.57 115.016C148.055 115.75 147.32 116.461 146.367 117.148C145.43 117.836 144.305 118.398 142.992 118.836C141.68 119.258 140.211 119.469 138.586 119.469ZM160.43 99.0078V119H152.531V93.6406H159.938L160.43 99.0078ZM159.469 105.453L157.664 105.5C157.664 103.719 157.875 102.078 158.297 100.578C158.719 99.0781 159.344 97.7734 160.172 96.6641C161 95.5547 162.016 94.6953 163.219 94.0859C164.438 93.4766 165.844 93.1719 167.438 93.1719C168.547 93.1719 169.555 93.3438 170.461 93.6875C171.367 94.0156 172.148 94.5391 172.805 95.2578C173.461 95.9609 173.961 96.8828 174.305 98.0234C174.664 99.1484 174.844 100.5 174.844 102.078V119H166.945V103.086C166.945 102.008 166.82 101.195 166.57 100.648C166.336 100.102 165.992 99.7344 165.539 99.5469C165.086 99.3594 164.531 99.2656 163.875 99.2656C163.188 99.2656 162.57 99.4219 162.023 99.7344C161.477 100.047 161.008 100.484 160.617 101.047C160.242 101.594 159.953 102.242 159.75 102.992C159.562 103.742 159.469 104.562 159.469 105.453ZM173.953 105.453L171.75 105.5C171.75 103.719 171.945 102.078 172.336 100.578C172.742 99.0781 173.344 97.7734 174.141 96.6641C174.953 95.5547 175.961 94.6953 177.164 94.0859C178.367 93.4766 179.766 93.1719 181.359 93.1719C182.516 93.1719 183.578 93.3438 184.547 93.6875C185.516 94.0312 186.352 94.5859 187.055 95.3516C187.758 96.1172 188.305 97.1328 188.695 98.3984C189.086 99.6484 189.281 101.195 189.281 103.039V119H181.359V103.039C181.359 101.992 181.234 101.203 180.984 100.672C180.75 100.125 180.406 99.7578 179.953 99.5703C179.5 99.3672 178.961 99.2656 178.336 99.2656C177.586 99.2656 176.938 99.4219 176.391 99.7344C175.844 100.047 175.383 100.484 175.008 101.047C174.648 101.594 174.383 102.242 174.211 102.992C174.039 103.742 173.953 104.562 173.953 105.453ZM192.82 106.578V106.086C192.82 104.227 193.086 102.516 193.617 100.953C194.148 99.375 194.93 98.0078 195.961 96.8516C196.992 95.6953 198.266 94.7969 199.781 94.1562C201.297 93.5 203.047 93.1719 205.031 93.1719C207.031 93.1719 208.789 93.5 210.305 94.1562C211.836 94.7969 213.117 95.6953 214.148 96.8516C215.18 98.0078 215.961 99.375 216.492 100.953C217.023 102.516 217.289 104.227 217.289 106.086V106.578C217.289 108.422 217.023 110.133 216.492 111.711C215.961 113.273 215.18 114.641 214.148 115.812C213.117 116.969 211.844 117.867 210.328 118.508C208.812 119.148 207.062 119.469 205.078 119.469C203.094 119.469 201.336 119.148 199.805 118.508C198.273 117.867 196.992 116.969 195.961 115.812C194.93 114.641 194.148 113.273 193.617 111.711C193.086 110.133 192.82 108.422 192.82 106.578ZM200.719 106.086V106.578C200.719 107.531 200.789 108.422 200.93 109.25C201.07 110.078 201.305 110.805 201.633 111.43C201.961 112.039 202.406 112.516 202.969 112.859C203.531 113.203 204.234 113.375 205.078 113.375C205.906 113.375 206.594 113.203 207.141 112.859C207.703 112.516 208.148 112.039 208.477 111.43C208.805 110.805 209.039 110.078 209.18 109.25C209.32 108.422 209.391 107.531 209.391 106.578V106.086C209.391 105.164 209.32 104.297 209.18 103.484C209.039 102.656 208.805 101.93 208.477 101.305C208.148 100.664 207.703 100.164 207.141 99.8047C206.578 99.4453 205.875 99.2656 205.031 99.2656C204.203 99.2656 203.508 99.4453 202.945 99.8047C202.398 100.164 201.961 100.664 201.633 101.305C201.305 101.93 201.07 102.656 200.93 103.484C200.789 104.297 200.719 105.164 200.719 106.086Z" fill="#01398E"/>
<path d="M1134 0H1348C1356.28 0 1363 6.71573 1363 15V148C1363 156.284 1356.28 163 1348 163H1134V0Z" fill="#59E4D4"/>
<path d="M1280.07 47.5H1216.93L1214.5 49.9286V113.071L1216.93 115.5H1280.07L1282.5 113.071V49.9286L1280.07 47.5ZM1277.64 110.643H1233.93V100.929H1245.1C1246.56 103.843 1249.96 105.786 1253.36 105.786C1258.7 105.786 1263.07 101.414 1263.07 96.0714C1263.07 90.7286 1258.7 86.3571 1253.36 86.3571C1248.01 86.3571 1243.64 90.7286 1243.64 96.0714H1229.07V110.643H1219.36V52.3571H1229.07V63.5286C1226.16 64.9857 1224.21 68.3857 1224.21 71.7857C1224.21 77.1286 1228.59 81.5 1233.93 81.5C1239.27 81.5 1243.64 77.1286 1243.64 71.7857H1253.36C1253.36 77.1286 1257.73 81.5 1263.07 81.5C1268.41 81.5 1272.79 77.1286 1272.79 71.7857C1272.79 66.4429 1268.41 62.0714 1263.07 62.0714C1259.67 62.0714 1256.27 64.0143 1254.81 66.9286H1242.19C1240.73 64.0143 1237.33 62.0714 1233.93 62.0714V52.3571H1277.64V110.643ZM1248.5 96.0714C1248.5 93.1571 1250.44 91.2143 1253.36 91.2143C1256.27 91.2143 1258.21 93.1571 1258.21 96.0714C1258.21 98.9857 1256.27 100.929 1253.36 100.929C1250.44 100.929 1248.5 98.9857 1248.5 96.0714ZM1233.93 66.9286C1236.84 66.9286 1238.79 68.8714 1238.79 71.7857C1238.79 74.7 1236.84 76.6429 1233.93 76.6429C1231.01 76.6429 1229.07 74.7 1229.07 71.7857C1229.07 68.8714 1231.01 66.9286 1233.93 66.9286ZM1263.07 66.9286C1265.99 66.9286 1267.93 68.8714 1267.93 71.7857C1267.93 74.7 1265.99 76.6429 1263.07 76.6429C1260.16 76.6429 1258.21 74.7 1258.21 71.7857C1258.21 68.8714 1260.16 66.9286 1263.07 66.9286Z" fill="white"/>
</svg>
