<svg width="1363" height="163" viewBox="0 0 1363 163" fill="none" xmlns="http://www.w3.org/2000/svg">
<g clip-path="url(#clip0_414_2)">
<path d="M0 15C0 6.71573 6.71573 0 15 0H37V163H15C6.71573 163 0 156.284 0 148V15Z" fill="#424242"/>
<path d="M1134 0H37V163H1134V0Z" fill="#F0F0F0"/>
<path d="M101.906 53.9219L94.3945 51.2383V48.0859L104.602 52.375V54.6367L101.906 53.9219ZM94.3945 56.1719L101.918 53.4297L104.602 52.7852V55.0352L94.3945 59.3242V56.1719ZM119.543 54.918H115.195V52.1758H119.543C120.215 52.1758 120.762 52.0664 121.184 51.8477C121.605 51.6211 121.914 51.3086 122.109 50.9102C122.305 50.5117 122.402 50.0625 122.402 49.5625C122.402 49.0547 122.305 48.582 122.109 48.1445C121.914 47.707 121.605 47.3555 121.184 47.0898C120.762 46.8242 120.215 46.6914 119.543 46.6914H116.414V61H112.898V43.9375H119.543C120.879 43.9375 122.023 44.1797 122.977 44.6641C123.938 45.1406 124.672 45.8008 125.18 46.6445C125.688 47.4883 125.941 48.4531 125.941 49.5391C125.941 50.6406 125.688 51.5938 125.18 52.3984C124.672 53.2031 123.938 53.8242 122.977 54.2617C122.023 54.6992 120.879 54.918 119.543 54.918ZM131.531 51.0859V61H128.156V48.3203H131.332L131.531 51.0859ZM135.352 48.2383L135.293 51.3672C135.129 51.3438 134.93 51.3242 134.695 51.3086C134.469 51.2852 134.262 51.2734 134.074 51.2734C133.598 51.2734 133.184 51.3359 132.832 51.4609C132.488 51.5781 132.199 51.7539 131.965 51.9883C131.738 52.2227 131.566 52.5078 131.449 52.8438C131.34 53.1797 131.277 53.5625 131.262 53.9922L130.582 53.7812C130.582 52.9609 130.664 52.207 130.828 51.5195C130.992 50.8242 131.23 50.2188 131.543 49.7031C131.863 49.1875 132.254 48.7891 132.715 48.5078C133.176 48.2266 133.703 48.0859 134.297 48.0859C134.484 48.0859 134.676 48.1016 134.871 48.1328C135.066 48.1562 135.227 48.1914 135.352 48.2383ZM136.055 54.7891V54.543C136.055 53.6133 136.188 52.7578 136.453 51.9766C136.719 51.1875 137.105 50.5039 137.613 49.9258C138.121 49.3477 138.746 48.8984 139.488 48.5781C140.23 48.25 141.082 48.0859 142.043 48.0859C143.004 48.0859 143.859 48.25 144.609 48.5781C145.359 48.8984 145.988 49.3477 146.496 49.9258C147.012 50.5039 147.402 51.1875 147.668 51.9766C147.934 52.7578 148.066 53.6133 148.066 54.543V54.7891C148.066 55.7109 147.934 56.5664 147.668 57.3555C147.402 58.1367 147.012 58.8203 146.496 59.4062C145.988 59.9844 145.363 60.4336 144.621 60.7539C143.879 61.0742 143.027 61.2344 142.066 61.2344C141.105 61.2344 140.25 61.0742 139.5 60.7539C138.758 60.4336 138.129 59.9844 137.613 59.4062C137.105 58.8203 136.719 58.1367 136.453 57.3555C136.188 56.5664 136.055 55.7109 136.055 54.7891ZM139.43 54.543V54.7891C139.43 55.3203 139.477 55.8164 139.57 56.2773C139.664 56.7383 139.812 57.1445 140.016 57.4961C140.227 57.8398 140.5 58.1094 140.836 58.3047C141.172 58.5 141.582 58.5977 142.066 58.5977C142.535 58.5977 142.938 58.5 143.273 58.3047C143.609 58.1094 143.879 57.8398 144.082 57.4961C144.285 57.1445 144.434 56.7383 144.527 56.2773C144.629 55.8164 144.68 55.3203 144.68 54.7891V54.543C144.68 54.0273 144.629 53.543 144.527 53.0898C144.434 52.6289 144.281 52.2227 144.07 51.8711C143.867 51.5117 143.598 51.2305 143.262 51.0273C142.926 50.8242 142.52 50.7227 142.043 50.7227C141.566 50.7227 141.16 50.8242 140.824 51.0273C140.496 51.2305 140.227 51.5117 140.016 51.8711C139.812 52.2227 139.664 52.6289 139.57 53.0898C139.477 53.543 139.43 54.0273 139.43 54.543ZM150.328 48.3203H153.715V61.7617C153.715 62.6992 153.543 63.4922 153.199 64.1406C152.855 64.7891 152.359 65.2812 151.711 65.6172C151.062 65.9531 150.277 66.1211 149.355 66.1211C149.066 66.1211 148.785 66.1055 148.512 66.0742C148.23 66.043 147.941 65.9922 147.645 65.9219L147.656 63.332C147.844 63.3633 148.027 63.3867 148.207 63.4023C148.379 63.4258 148.555 63.4375 148.734 63.4375C149.086 63.4375 149.379 63.3789 149.613 63.2617C149.848 63.1445 150.023 62.9609 150.141 62.7109C150.266 62.4688 150.328 62.1523 150.328 61.7617V48.3203ZM150.059 45.0156C150.059 44.5234 150.23 44.1172 150.574 43.7969C150.926 43.4766 151.387 43.3164 151.957 43.3164C152.535 43.3164 152.996 43.4766 153.34 43.7969C153.684 44.1172 153.855 44.5234 153.855 45.0156C153.855 45.5078 153.684 45.9141 153.34 46.2344C152.996 46.5547 152.535 46.7148 151.957 46.7148C151.387 46.7148 150.926 46.5547 150.574 46.2344C150.23 45.9141 150.059 45.5078 150.059 45.0156ZM162.234 61.2344C161.25 61.2344 160.367 61.0781 159.586 60.7656C158.805 60.4453 158.141 60.0039 157.594 59.4414C157.055 58.8789 156.641 58.2266 156.352 57.4844C156.062 56.7344 155.918 55.9375 155.918 55.0938V54.625C155.918 53.6641 156.055 52.7852 156.328 51.9883C156.602 51.1914 156.992 50.5 157.5 49.9141C158.016 49.3281 158.641 48.8789 159.375 48.5664C160.109 48.2461 160.938 48.0859 161.859 48.0859C162.758 48.0859 163.555 48.2344 164.25 48.5312C164.945 48.8281 165.527 49.25 165.996 49.7969C166.473 50.3438 166.832 51 167.074 51.7656C167.316 52.5234 167.438 53.3672 167.438 54.2969V55.7031H157.359V53.4531H164.121V53.1953C164.121 52.7266 164.035 52.3086 163.863 51.9414C163.699 51.5664 163.449 51.2695 163.113 51.0508C162.777 50.832 162.348 50.7227 161.824 50.7227C161.379 50.7227 160.996 50.8203 160.676 51.0156C160.355 51.2109 160.094 51.4844 159.891 51.8359C159.695 52.1875 159.547 52.6016 159.445 53.0781C159.352 53.5469 159.305 54.0625 159.305 54.625V55.0938C159.305 55.6016 159.375 56.0703 159.516 56.5C159.664 56.9297 159.871 57.3008 160.137 57.6133C160.41 57.9258 160.738 58.168 161.121 58.3398C161.512 58.5117 161.953 58.5977 162.445 58.5977C163.055 58.5977 163.621 58.4805 164.145 58.2461C164.676 58.0039 165.133 57.6406 165.516 57.1562L167.156 58.9375C166.891 59.3203 166.527 59.6875 166.066 60.0391C165.613 60.3906 165.066 60.6797 164.426 60.9062C163.785 61.125 163.055 61.2344 162.234 61.2344ZM174.598 58.5977C175.012 58.5977 175.379 58.5195 175.699 58.3633C176.02 58.1992 176.27 57.9727 176.449 57.6836C176.637 57.3867 176.734 57.0391 176.742 56.6406H179.918C179.91 57.5312 179.672 58.3242 179.203 59.0195C178.734 59.707 178.105 60.25 177.316 60.6484C176.527 61.0391 175.645 61.2344 174.668 61.2344C173.684 61.2344 172.824 61.0703 172.09 60.7422C171.363 60.4141 170.758 59.9609 170.273 59.3828C169.789 58.7969 169.426 58.1172 169.184 57.3438C168.941 56.5625 168.82 55.7266 168.82 54.8359V54.4961C168.82 53.5977 168.941 52.7617 169.184 51.9883C169.426 51.207 169.789 50.5273 170.273 49.9492C170.758 49.3633 171.363 48.9062 172.09 48.5781C172.816 48.25 173.668 48.0859 174.645 48.0859C175.684 48.0859 176.594 48.2852 177.375 48.6836C178.164 49.082 178.781 49.6523 179.227 50.3945C179.68 51.1289 179.91 52 179.918 53.0078H176.742C176.734 52.5859 176.645 52.2031 176.473 51.8594C176.309 51.5156 176.066 51.2422 175.746 51.0391C175.434 50.8281 175.047 50.7227 174.586 50.7227C174.094 50.7227 173.691 50.8281 173.379 51.0391C173.066 51.2422 172.824 51.5234 172.652 51.8828C172.48 52.2344 172.359 52.6367 172.289 53.0898C172.227 53.5352 172.195 54.0039 172.195 54.4961V54.8359C172.195 55.3281 172.227 55.8008 172.289 56.2539C172.352 56.707 172.469 57.1094 172.641 57.4609C172.82 57.8125 173.066 58.0898 173.379 58.293C173.691 58.4961 174.098 58.5977 174.598 58.5977ZM188.086 48.3203V50.7109H180.703V48.3203H188.086ZM182.531 45.1914H185.906V57.1797C185.906 57.5469 185.953 57.8281 186.047 58.0234C186.148 58.2188 186.297 58.3555 186.492 58.4336C186.688 58.5039 186.934 58.5391 187.23 58.5391C187.441 58.5391 187.629 58.5312 187.793 58.5156C187.965 58.4922 188.109 58.4688 188.227 58.4453L188.238 60.9297C187.949 61.0234 187.637 61.0977 187.301 61.1523C186.965 61.207 186.594 61.2344 186.188 61.2344C185.445 61.2344 184.797 61.1133 184.242 60.8711C183.695 60.6211 183.273 60.2227 182.977 59.6758C182.68 59.1289 182.531 58.4102 182.531 57.5195V45.1914ZM203.191 43.9375V61H199.688V43.9375H203.191ZM208.441 43.9375V46.6914H194.52V43.9375H208.441ZM213.797 48.3203V61H210.41V48.3203H213.797ZM210.199 45.0156C210.199 44.5234 210.371 44.1172 210.715 43.7969C211.059 43.4766 211.52 43.3164 212.098 43.3164C212.668 43.3164 213.125 43.4766 213.469 43.7969C213.82 44.1172 213.996 44.5234 213.996 45.0156C213.996 45.5078 213.82 45.9141 213.469 46.2344C213.125 46.5547 212.668 46.7148 212.098 46.7148C211.52 46.7148 211.059 46.5547 210.715 46.2344C210.371 45.9141 210.199 45.5078 210.199 45.0156ZM222.797 48.3203V50.7109H215.414V48.3203H222.797ZM217.242 45.1914H220.617V57.1797C220.617 57.5469 220.664 57.8281 220.758 58.0234C220.859 58.2188 221.008 58.3555 221.203 58.4336C221.398 58.5039 221.645 58.5391 221.941 58.5391C222.152 58.5391 222.34 58.5312 222.504 58.5156C222.676 58.4922 222.82 58.4688 222.938 58.4453L222.949 60.9297C222.66 61.0234 222.348 61.0977 222.012 61.1523C221.676 61.207 221.305 61.2344 220.898 61.2344C220.156 61.2344 219.508 61.1133 218.953 60.8711C218.406 60.6211 217.984 60.2227 217.688 59.6758C217.391 59.1289 217.242 58.4102 217.242 57.5195V45.1914ZM228.281 43V61H224.895V43H228.281ZM236.906 61.2344C235.922 61.2344 235.039 61.0781 234.258 60.7656C233.477 60.4453 232.812 60.0039 232.266 59.4414C231.727 58.8789 231.312 58.2266 231.023 57.4844C230.734 56.7344 230.59 55.9375 230.59 55.0938V54.625C230.59 53.6641 230.727 52.7852 231 51.9883C231.273 51.1914 231.664 50.5 232.172 49.9141C232.688 49.3281 233.312 48.8789 234.047 48.5664C234.781 48.2461 235.609 48.0859 236.531 48.0859C237.43 48.0859 238.227 48.2344 238.922 48.5312C239.617 48.8281 240.199 49.25 240.668 49.7969C241.145 50.3438 241.504 51 241.746 51.7656C241.988 52.5234 242.109 53.3672 242.109 54.2969V55.7031H232.031V53.4531H238.793V53.1953C238.793 52.7266 238.707 52.3086 238.535 51.9414C238.371 51.5664 238.121 51.2695 237.785 51.0508C237.449 50.832 237.02 50.7227 236.496 50.7227C236.051 50.7227 235.668 50.8203 235.348 51.0156C235.027 51.2109 234.766 51.4844 234.562 51.8359C234.367 52.1875 234.219 52.6016 234.117 53.0781C234.023 53.5469 233.977 54.0625 233.977 54.625V55.0938C233.977 55.6016 234.047 56.0703 234.188 56.5C234.336 56.9297 234.543 57.3008 234.809 57.6133C235.082 57.9258 235.41 58.168 235.793 58.3398C236.184 58.5117 236.625 58.5977 237.117 58.5977C237.727 58.5977 238.293 58.4805 238.816 58.2461C239.348 58.0039 239.805 57.6406 240.188 57.1562L241.828 58.9375C241.562 59.3203 241.199 59.6875 240.738 60.0391C240.285 60.3906 239.738 60.6797 239.098 60.9062C238.457 61.125 237.727 61.2344 236.906 61.2344Z" fill="#888888"/>
<path d="M110.062 92.0469L101.742 119H92.9062L105.445 84.875H111.047L110.062 92.0469ZM116.953 119L108.609 92.0469L107.531 84.875H113.203L125.812 119H116.953ZM116.625 106.273V112.625H99.1172V106.273H116.625ZM137.062 84.875V119H128.859V84.875H137.062ZM157.898 101.234V107.352H143.812V101.234H157.898ZM178.078 107.422H169.594V101.07H178.078C179.234 101.07 180.172 100.875 180.891 100.484C181.609 100.094 182.133 99.5547 182.461 98.8672C182.805 98.1641 182.977 97.375 182.977 96.5C182.977 95.5625 182.805 94.6953 182.461 93.8984C182.133 93.1016 181.609 92.4609 180.891 91.9766C180.172 91.4766 179.234 91.2266 178.078 91.2266H172.688V119H164.461V84.875H178.078C180.812 84.875 183.164 85.375 185.133 86.375C187.117 87.375 188.641 88.75 189.703 90.5C190.766 92.2344 191.297 94.2188 191.297 96.4531C191.297 98.6562 190.766 100.578 189.703 102.219C188.641 103.859 187.117 105.141 185.133 106.062C183.164 106.969 180.812 107.422 178.078 107.422ZM194.039 106.578V106.086C194.039 104.227 194.305 102.516 194.836 100.953C195.367 99.375 196.148 98.0078 197.18 96.8516C198.211 95.6953 199.484 94.7969 201 94.1562C202.516 93.5 204.266 93.1719 206.25 93.1719C208.25 93.1719 210.008 93.5 211.523 94.1562C213.055 94.7969 214.336 95.6953 215.367 96.8516C216.398 98.0078 217.18 99.375 217.711 100.953C218.242 102.516 218.508 104.227 218.508 106.086V106.578C218.508 108.422 218.242 110.133 217.711 111.711C217.18 113.273 216.398 114.641 215.367 115.812C214.336 116.969 213.062 117.867 211.547 118.508C210.031 119.148 208.281 119.469 206.297 119.469C204.312 119.469 202.555 119.148 201.023 118.508C199.492 117.867 198.211 116.969 197.18 115.812C196.148 114.641 195.367 113.273 194.836 111.711C194.305 110.133 194.039 108.422 194.039 106.578ZM201.938 106.086V106.578C201.938 107.531 202.008 108.422 202.148 109.25C202.289 110.078 202.523 110.805 202.852 111.43C203.18 112.039 203.625 112.516 204.188 112.859C204.75 113.203 205.453 113.375 206.297 113.375C207.125 113.375 207.812 113.203 208.359 112.859C208.922 112.516 209.367 112.039 209.695 111.43C210.023 110.805 210.258 110.078 210.398 109.25C210.539 108.422 210.609 107.531 210.609 106.578V106.086C210.609 105.164 210.539 104.297 210.398 103.484C210.258 102.656 210.023 101.93 209.695 101.305C209.367 100.664 208.922 100.164 208.359 99.8047C207.797 99.4453 207.094 99.2656 206.25 99.2656C205.422 99.2656 204.727 99.4453 204.164 99.8047C203.617 100.164 203.18 100.664 202.852 101.305C202.523 101.93 202.289 102.656 202.148 103.484C202.008 104.297 201.938 105.164 201.938 106.086ZM229.734 111.453L234.422 93.6406H239.367L237.609 102.57L232.969 119H229.008L229.734 111.453ZM227.883 93.6406L230.789 111.312L231.117 119H226.312L220.312 93.6406H227.883ZM243.539 110.938L246.469 93.6406H254.039L248.086 119H243.281L243.539 110.938ZM239.93 93.6406L244.664 111.406L245.391 119H241.383L236.836 102.617L235.148 93.6406H239.93ZM269.18 119.469C267.117 119.469 265.273 119.148 263.648 118.508C262.023 117.852 260.648 116.953 259.523 115.812C258.414 114.672 257.562 113.359 256.969 111.875C256.391 110.391 256.102 108.82 256.102 107.164V106.273C256.102 104.414 256.359 102.695 256.875 101.117C257.391 99.5234 258.156 98.1328 259.172 96.9453C260.188 95.7578 261.461 94.8359 262.992 94.1797C264.523 93.5078 266.305 93.1719 268.336 93.1719C270.133 93.1719 271.742 93.4609 273.164 94.0391C274.586 94.6172 275.789 95.4453 276.773 96.5234C277.773 97.6016 278.531 98.9062 279.047 100.438C279.578 101.969 279.844 103.688 279.844 105.594V108.805H259.125V103.859H272.133V103.25C272.148 102.406 272 101.688 271.688 101.094C271.391 100.5 270.953 100.047 270.375 99.7344C269.797 99.4219 269.094 99.2656 268.266 99.2656C267.406 99.2656 266.695 99.4531 266.133 99.8281C265.586 100.203 265.156 100.719 264.844 101.375C264.547 102.016 264.336 102.758 264.211 103.602C264.086 104.445 264.023 105.336 264.023 106.273V107.164C264.023 108.102 264.148 108.953 264.398 109.719C264.664 110.484 265.039 111.141 265.523 111.688C266.023 112.219 266.617 112.633 267.305 112.93C268.008 113.227 268.805 113.375 269.695 113.375C270.773 113.375 271.836 113.172 272.883 112.766C273.93 112.359 274.828 111.688 275.578 110.75L279.164 115.016C278.648 115.75 277.914 116.461 276.961 117.148C276.023 117.836 274.898 118.398 273.586 118.836C272.273 119.258 270.805 119.469 269.18 119.469ZM291.023 99.9219V119H283.125V93.6406H290.508L291.023 99.9219ZM298.523 93.4531L298.383 100.789C298.07 100.758 297.648 100.719 297.117 100.672C296.586 100.625 296.141 100.602 295.781 100.602C294.859 100.602 294.062 100.711 293.391 100.93C292.734 101.133 292.188 101.445 291.75 101.867C291.328 102.273 291.016 102.789 290.812 103.414C290.625 104.039 290.539 104.766 290.555 105.594L289.125 104.656C289.125 102.953 289.289 101.406 289.617 100.016C289.961 98.6094 290.445 97.3984 291.07 96.3828C291.695 95.3516 292.453 94.5625 293.344 94.0156C294.234 93.4531 295.234 93.1719 296.344 93.1719C296.734 93.1719 297.117 93.1953 297.492 93.2422C297.883 93.2891 298.227 93.3594 298.523 93.4531ZM313.055 119.469C310.992 119.469 309.148 119.148 307.523 118.508C305.898 117.852 304.523 116.953 303.398 115.812C302.289 114.672 301.438 113.359 300.844 111.875C300.266 110.391 299.977 108.82 299.977 107.164V106.273C299.977 104.414 300.234 102.695 300.75 101.117C301.266 99.5234 302.031 98.1328 303.047 96.9453C304.062 95.7578 305.336 94.8359 306.867 94.1797C308.398 93.5078 310.18 93.1719 312.211 93.1719C314.008 93.1719 315.617 93.4609 317.039 94.0391C318.461 94.6172 319.664 95.4453 320.648 96.5234C321.648 97.6016 322.406 98.9062 322.922 100.438C323.453 101.969 323.719 103.688 323.719 105.594V108.805H303V103.859H316.008V103.25C316.023 102.406 315.875 101.688 315.562 101.094C315.266 100.5 314.828 100.047 314.25 99.7344C313.672 99.4219 312.969 99.2656 312.141 99.2656C311.281 99.2656 310.57 99.4531 310.008 99.8281C309.461 100.203 309.031 100.719 308.719 101.375C308.422 102.016 308.211 102.758 308.086 103.602C307.961 104.445 307.898 105.336 307.898 106.273V107.164C307.898 108.102 308.023 108.953 308.273 109.719C308.539 110.484 308.914 111.141 309.398 111.688C309.898 112.219 310.492 112.633 311.18 112.93C311.883 113.227 312.68 113.375 313.57 113.375C314.648 113.375 315.711 113.172 316.758 112.766C317.805 112.359 318.703 111.688 319.453 110.75L323.039 115.016C322.523 115.75 321.789 116.461 320.836 117.148C319.898 117.836 318.773 118.398 317.461 118.836C316.148 119.258 314.68 119.469 313.055 119.469ZM341.508 113.188V83H349.453V119H342.328L341.508 113.188ZM325.945 106.625V106.133C325.945 104.211 326.156 102.461 326.578 100.883C327 99.2891 327.625 97.9219 328.453 96.7812C329.281 95.625 330.312 94.7344 331.547 94.1094C332.781 93.4844 334.203 93.1719 335.812 93.1719C337.25 93.1719 338.508 93.5078 339.586 94.1797C340.664 94.8359 341.586 95.7578 342.352 96.9453C343.117 98.1328 343.742 99.5234 344.227 101.117C344.711 102.695 345.078 104.398 345.328 106.227V106.812C345.078 108.531 344.711 110.156 344.227 111.688C343.742 113.203 343.117 114.547 342.352 115.719C341.586 116.891 340.656 117.812 339.562 118.484C338.484 119.141 337.219 119.469 335.766 119.469C334.156 119.469 332.734 119.148 331.5 118.508C330.281 117.867 329.258 116.969 328.43 115.812C327.617 114.656 327 113.297 326.578 111.734C326.156 110.172 325.945 108.469 325.945 106.625ZM333.844 106.133V106.625C333.844 107.578 333.906 108.461 334.031 109.273C334.156 110.086 334.367 110.805 334.664 111.43C334.977 112.039 335.383 112.516 335.883 112.859C336.398 113.203 337.031 113.375 337.781 113.375C338.797 113.375 339.633 113.133 340.289 112.648C340.961 112.164 341.453 111.477 341.766 110.586C342.094 109.695 342.234 108.648 342.188 107.445V105.594C342.219 104.562 342.148 103.656 341.977 102.875C341.805 102.078 341.531 101.414 341.156 100.883C340.797 100.352 340.336 99.9531 339.773 99.6875C339.227 99.4062 338.578 99.2656 337.828 99.2656C337.094 99.2656 336.469 99.4375 335.953 99.7812C335.453 100.125 335.047 100.609 334.734 101.234C334.422 101.844 334.195 102.57 334.055 103.414C333.914 104.242 333.844 105.148 333.844 106.133ZM380.719 92.0469L372.398 119H363.562L376.102 84.875H381.703L380.719 92.0469ZM387.609 119L379.266 92.0469L378.188 84.875H383.859L396.469 119H387.609ZM387.281 106.273V112.625H369.773V106.273H387.281ZM405.445 98.5156V128.75H397.547V93.6406H404.906L405.445 98.5156ZM421.008 106.016V106.508C421.008 108.352 420.797 110.062 420.375 111.641C419.953 113.219 419.328 114.594 418.5 115.766C417.672 116.938 416.641 117.852 415.406 118.508C414.188 119.148 412.773 119.469 411.164 119.469C409.648 119.469 408.344 119.133 407.25 118.461C406.156 117.789 405.242 116.859 404.508 115.672C403.773 114.484 403.18 113.125 402.727 111.594C402.273 110.062 401.914 108.445 401.648 106.742V106.109C401.914 104.281 402.273 102.586 402.727 101.023C403.18 99.4453 403.773 98.0703 404.508 96.8984C405.242 95.7266 406.148 94.8125 407.227 94.1562C408.32 93.5 409.625 93.1719 411.141 93.1719C412.75 93.1719 414.164 93.4766 415.383 94.0859C416.617 94.6953 417.648 95.5703 418.477 96.7109C419.32 97.8359 419.953 99.1875 420.375 100.766C420.797 102.344 421.008 104.094 421.008 106.016ZM413.109 106.508V106.016C413.109 105.031 413.039 104.133 412.898 103.32C412.758 102.492 412.531 101.773 412.219 101.164C411.922 100.555 411.523 100.086 411.023 99.7578C410.523 99.4297 409.906 99.2656 409.172 99.2656C408.328 99.2656 407.617 99.3984 407.039 99.6641C406.477 99.9141 406.023 100.305 405.68 100.836C405.352 101.352 405.117 102 404.977 102.781C404.852 103.547 404.797 104.445 404.812 105.477V107.398C404.781 108.586 404.898 109.633 405.164 110.539C405.43 111.43 405.891 112.125 406.547 112.625C407.203 113.125 408.094 113.375 409.219 113.375C409.969 113.375 410.594 113.203 411.094 112.859C411.594 112.5 411.992 112.008 412.289 111.383C412.586 110.742 412.797 110.008 412.922 109.18C413.047 108.352 413.109 107.461 413.109 106.508ZM432.492 98.5156V128.75H424.594V93.6406H431.953L432.492 98.5156ZM448.055 106.016V106.508C448.055 108.352 447.844 110.062 447.422 111.641C447 113.219 446.375 114.594 445.547 115.766C444.719 116.938 443.688 117.852 442.453 118.508C441.234 119.148 439.82 119.469 438.211 119.469C436.695 119.469 435.391 119.133 434.297 118.461C433.203 117.789 432.289 116.859 431.555 115.672C430.82 114.484 430.227 113.125 429.773 111.594C429.32 110.062 428.961 108.445 428.695 106.742V106.109C428.961 104.281 429.32 102.586 429.773 101.023C430.227 99.4453 430.82 98.0703 431.555 96.8984C432.289 95.7266 433.195 94.8125 434.273 94.1562C435.367 93.5 436.672 93.1719 438.188 93.1719C439.797 93.1719 441.211 93.4766 442.43 94.0859C443.664 94.6953 444.695 95.5703 445.523 96.7109C446.367 97.8359 447 99.1875 447.422 100.766C447.844 102.344 448.055 104.094 448.055 106.016ZM440.156 106.508V106.016C440.156 105.031 440.086 104.133 439.945 103.32C439.805 102.492 439.578 101.773 439.266 101.164C438.969 100.555 438.57 100.086 438.07 99.7578C437.57 99.4297 436.953 99.2656 436.219 99.2656C435.375 99.2656 434.664 99.3984 434.086 99.6641C433.523 99.9141 433.07 100.305 432.727 100.836C432.398 101.352 432.164 102 432.023 102.781C431.898 103.547 431.844 104.445 431.859 105.477V107.398C431.828 108.586 431.945 109.633 432.211 110.539C432.477 111.43 432.938 112.125 433.594 112.625C434.25 113.125 435.141 113.375 436.266 113.375C437.016 113.375 437.641 113.203 438.141 112.859C438.641 112.5 439.039 112.008 439.336 111.383C439.633 110.742 439.844 110.008 439.969 109.18C440.094 108.352 440.156 107.461 440.156 106.508Z" fill="black"/>
<path d="M1134 0H1348C1356.28 0 1363 6.71573 1363 15V148C1363 156.284 1356.28 163 1348 163H1134V0Z" fill="#009BDA"/>
<path d="M1212.5 117.5V45.5H1284.5V117.5H1212.5Z" fill="white" fill-opacity="0.01"/>
<path d="M1221.5 81.5125V108.5H1275.5V81.5" stroke="white" stroke-width="7.24" stroke-linecap="round" stroke-linejoin="round"/>
<path d="M1262 68L1248.5 54.5L1235 68" stroke="white" stroke-width="7.24" stroke-linecap="round" stroke-linejoin="round"/>
<path d="M1248.49 93.4999V54.5" stroke="white" stroke-width="7.24" stroke-linecap="round" stroke-linejoin="round"/>
</g>
<defs>
<clipPath id="clip0_414_2">
<rect width="1363" height="163" fill="white"/>
</clipPath>
</defs>
</svg>
