<svg width="1363" height="163" viewBox="0 0 1363 163" fill="none" xmlns="http://www.w3.org/2000/svg">
<path d="M0 15C0 6.71573 6.71573 0 15 0H37V163H15C6.71573 163 0 156.284 0 148V15Z" fill="#424242"/>
<rect width="1097" height="163" transform="translate(37)" fill="#F0F0F0"/>
<path d="M101.906 53.9219L94.3945 51.2383V48.0859L104.602 52.375V54.6367L101.906 53.9219ZM94.3945 56.1719L101.918 53.4297L104.602 52.7852V55.0352L94.3945 59.3242V56.1719ZM119.895 43.9375V61H116.391V43.9375H119.895ZM125.145 43.9375V46.6914H111.223V43.9375H125.145ZM132 58.1406V52.4922C132 52.0859 131.934 51.7383 131.801 51.4492C131.668 51.1523 131.461 50.9219 131.18 50.7578C130.906 50.5938 130.551 50.5117 130.113 50.5117C129.738 50.5117 129.414 50.5781 129.141 50.7109C128.867 50.8359 128.656 51.0195 128.508 51.2617C128.359 51.4961 128.285 51.7734 128.285 52.0938H124.91C124.91 51.5547 125.035 51.043 125.285 50.5586C125.535 50.0742 125.898 49.6484 126.375 49.2812C126.852 48.9062 127.418 48.6133 128.074 48.4023C128.738 48.1914 129.48 48.0859 130.301 48.0859C131.285 48.0859 132.16 48.25 132.926 48.5781C133.691 48.9062 134.293 49.3984 134.73 50.0547C135.176 50.7109 135.398 51.5312 135.398 52.5156V57.9414C135.398 58.6367 135.441 59.207 135.527 59.6523C135.613 60.0898 135.738 60.4727 135.902 60.8008V61H132.492C132.328 60.6562 132.203 60.2266 132.117 59.7109C132.039 59.1875 132 58.6641 132 58.1406ZM132.445 53.2773L132.469 55.1875H130.582C130.137 55.1875 129.75 55.2383 129.422 55.3398C129.094 55.4414 128.824 55.5859 128.613 55.7734C128.402 55.9531 128.246 56.1641 128.145 56.4062C128.051 56.6484 128.004 56.9141 128.004 57.2031C128.004 57.4922 128.07 57.7539 128.203 57.9883C128.336 58.2148 128.527 58.3945 128.777 58.5273C129.027 58.6523 129.32 58.7148 129.656 58.7148C130.164 58.7148 130.605 58.6133 130.98 58.4102C131.355 58.207 131.645 57.957 131.848 57.6602C132.059 57.3633 132.168 57.082 132.176 56.8164L133.066 58.2461C132.941 58.5664 132.77 58.8984 132.551 59.2422C132.34 59.5859 132.07 59.9102 131.742 60.2148C131.414 60.5117 131.02 60.7578 130.559 60.9531C130.098 61.1406 129.551 61.2344 128.918 61.2344C128.113 61.2344 127.383 61.0742 126.727 60.7539C126.078 60.4258 125.562 59.9766 125.18 59.4062C124.805 58.8281 124.617 58.1719 124.617 57.4375C124.617 56.7734 124.742 56.1836 124.992 55.668C125.242 55.1523 125.609 54.7188 126.094 54.3672C126.586 54.0078 127.199 53.7383 127.934 53.5586C128.668 53.3711 129.52 53.2773 130.488 53.2773H132.445ZM144.855 57.4961C144.855 57.2539 144.785 57.0352 144.645 56.8398C144.504 56.6445 144.242 56.4648 143.859 56.3008C143.484 56.1289 142.941 55.9727 142.23 55.832C141.59 55.6914 140.992 55.5156 140.438 55.3047C139.891 55.0859 139.414 54.8242 139.008 54.5195C138.609 54.2148 138.297 53.8555 138.07 53.4414C137.844 53.0195 137.73 52.5391 137.73 52C137.73 51.4688 137.844 50.9688 138.07 50.5C138.305 50.0312 138.637 49.6172 139.066 49.2578C139.504 48.8906 140.035 48.6055 140.66 48.4023C141.293 48.1914 142.004 48.0859 142.793 48.0859C143.895 48.0859 144.84 48.2617 145.629 48.6133C146.426 48.9648 147.035 49.4492 147.457 50.0664C147.887 50.6758 148.102 51.3711 148.102 52.1523H144.727C144.727 51.8242 144.656 51.5312 144.516 51.2734C144.383 51.0078 144.172 50.8008 143.883 50.6523C143.602 50.4961 143.234 50.418 142.781 50.418C142.406 50.418 142.082 50.4844 141.809 50.6172C141.535 50.7422 141.324 50.9141 141.176 51.1328C141.035 51.3438 140.965 51.5781 140.965 51.8359C140.965 52.0312 141.004 52.207 141.082 52.3633C141.168 52.5117 141.305 52.6484 141.492 52.7734C141.68 52.8984 141.922 53.0156 142.219 53.125C142.523 53.2266 142.898 53.3203 143.344 53.4062C144.258 53.5938 145.074 53.8398 145.793 54.1445C146.512 54.4414 147.082 54.8477 147.504 55.3633C147.926 55.8711 148.137 56.5391 148.137 57.3672C148.137 57.9297 148.012 58.4453 147.762 58.9141C147.512 59.3828 147.152 59.793 146.684 60.1445C146.215 60.4883 145.652 60.7578 144.996 60.9531C144.348 61.1406 143.617 61.2344 142.805 61.2344C141.625 61.2344 140.625 61.0234 139.805 60.6016C138.992 60.1797 138.375 59.6445 137.953 58.9961C137.539 58.3398 137.332 57.668 137.332 56.9805H140.531C140.547 57.4414 140.664 57.8125 140.883 58.0938C141.109 58.375 141.395 58.5781 141.738 58.7031C142.09 58.8281 142.469 58.8906 142.875 58.8906C143.312 58.8906 143.676 58.832 143.965 58.7148C144.254 58.5898 144.473 58.4258 144.621 58.2227C144.777 58.0117 144.855 57.7695 144.855 57.4961ZM153.703 42.9883V61H150.328V42.9883H153.703ZM161.695 48.3203L156.188 54.6016L153.234 57.5898L152.004 55.1523L154.348 52.1758L157.641 48.3203H161.695ZM158.191 61L154.441 55.1406L156.773 53.1016L162.082 61H158.191ZM170.988 43.9375V61H167.484V43.9375H170.988ZM176.238 43.9375V46.6914H162.316V43.9375H176.238ZM181.594 48.3203V61H178.207V48.3203H181.594ZM177.996 45.0156C177.996 44.5234 178.168 44.1172 178.512 43.7969C178.855 43.4766 179.316 43.3164 179.895 43.3164C180.465 43.3164 180.922 43.4766 181.266 43.7969C181.617 44.1172 181.793 44.5234 181.793 45.0156C181.793 45.5078 181.617 45.9141 181.266 46.2344C180.922 46.5547 180.465 46.7148 179.895 46.7148C179.316 46.7148 178.855 46.5547 178.512 46.2344C178.168 45.9141 177.996 45.5078 177.996 45.0156ZM189.621 58.5977C190.035 58.5977 190.402 58.5195 190.723 58.3633C191.043 58.1992 191.293 57.9727 191.473 57.6836C191.66 57.3867 191.758 57.0391 191.766 56.6406H194.941C194.934 57.5312 194.695 58.3242 194.227 59.0195C193.758 59.707 193.129 60.25 192.34 60.6484C191.551 61.0391 190.668 61.2344 189.691 61.2344C188.707 61.2344 187.848 61.0703 187.113 60.7422C186.387 60.4141 185.781 59.9609 185.297 59.3828C184.812 58.7969 184.449 58.1172 184.207 57.3438C183.965 56.5625 183.844 55.7266 183.844 54.8359V54.4961C183.844 53.5977 183.965 52.7617 184.207 51.9883C184.449 51.207 184.812 50.5273 185.297 49.9492C185.781 49.3633 186.387 48.9062 187.113 48.5781C187.84 48.25 188.691 48.0859 189.668 48.0859C190.707 48.0859 191.617 48.2852 192.398 48.6836C193.188 49.082 193.805 49.6523 194.25 50.3945C194.703 51.1289 194.934 52 194.941 53.0078H191.766C191.758 52.5859 191.668 52.2031 191.496 51.8594C191.332 51.5156 191.09 51.2422 190.77 51.0391C190.457 50.8281 190.07 50.7227 189.609 50.7227C189.117 50.7227 188.715 50.8281 188.402 51.0391C188.09 51.2422 187.848 51.5234 187.676 51.8828C187.504 52.2344 187.383 52.6367 187.312 53.0898C187.25 53.5352 187.219 54.0039 187.219 54.4961V54.8359C187.219 55.3281 187.25 55.8008 187.312 56.2539C187.375 56.707 187.492 57.1094 187.664 57.4609C187.844 57.8125 188.09 58.0898 188.402 58.293C188.715 58.4961 189.121 58.5977 189.621 58.5977ZM200.273 42.9883V61H196.898V42.9883H200.273ZM208.266 48.3203L202.758 54.6016L199.805 57.5898L198.574 55.1523L200.918 52.1758L204.211 48.3203H208.266ZM204.762 61L201.012 55.1406L203.344 53.1016L208.652 61H204.762Z" fill="#888888"/>
<path d="M110.062 92.0469L101.742 119H92.9062L105.445 84.875H111.047L110.062 92.0469ZM116.953 119L108.609 92.0469L107.531 84.875H113.203L125.812 119H116.953ZM116.625 106.273V112.625H99.1172V106.273H116.625ZM137.062 84.875V119H128.859V84.875H137.062ZM157.898 101.234V107.352H143.812V101.234H157.898ZM178.078 107.422H169.594V101.07H178.078C179.234 101.07 180.172 100.875 180.891 100.484C181.609 100.094 182.133 99.5547 182.461 98.8672C182.805 98.1641 182.977 97.375 182.977 96.5C182.977 95.5625 182.805 94.6953 182.461 93.8984C182.133 93.1016 181.609 92.4609 180.891 91.9766C180.172 91.4766 179.234 91.2266 178.078 91.2266H172.688V119H164.461V84.875H178.078C180.812 84.875 183.164 85.375 185.133 86.375C187.117 87.375 188.641 88.75 189.703 90.5C190.766 92.2344 191.297 94.2188 191.297 96.4531C191.297 98.6562 190.766 100.578 189.703 102.219C188.641 103.859 187.117 105.141 185.133 106.062C183.164 106.969 180.812 107.422 178.078 107.422ZM194.039 106.578V106.086C194.039 104.227 194.305 102.516 194.836 100.953C195.367 99.375 196.148 98.0078 197.18 96.8516C198.211 95.6953 199.484 94.7969 201 94.1562C202.516 93.5 204.266 93.1719 206.25 93.1719C208.25 93.1719 210.008 93.5 211.523 94.1562C213.055 94.7969 214.336 95.6953 215.367 96.8516C216.398 98.0078 217.18 99.375 217.711 100.953C218.242 102.516 218.508 104.227 218.508 106.086V106.578C218.508 108.422 218.242 110.133 217.711 111.711C217.18 113.273 216.398 114.641 215.367 115.812C214.336 116.969 213.062 117.867 211.547 118.508C210.031 119.148 208.281 119.469 206.297 119.469C204.312 119.469 202.555 119.148 201.023 118.508C199.492 117.867 198.211 116.969 197.18 115.812C196.148 114.641 195.367 113.273 194.836 111.711C194.305 110.133 194.039 108.422 194.039 106.578ZM201.938 106.086V106.578C201.938 107.531 202.008 108.422 202.148 109.25C202.289 110.078 202.523 110.805 202.852 111.43C203.18 112.039 203.625 112.516 204.188 112.859C204.75 113.203 205.453 113.375 206.297 113.375C207.125 113.375 207.812 113.203 208.359 112.859C208.922 112.516 209.367 112.039 209.695 111.43C210.023 110.805 210.258 110.078 210.398 109.25C210.539 108.422 210.609 107.531 210.609 106.578V106.086C210.609 105.164 210.539 104.297 210.398 103.484C210.258 102.656 210.023 101.93 209.695 101.305C209.367 100.664 208.922 100.164 208.359 99.8047C207.797 99.4453 207.094 99.2656 206.25 99.2656C205.422 99.2656 204.727 99.4453 204.164 99.8047C203.617 100.164 203.18 100.664 202.852 101.305C202.523 101.93 202.289 102.656 202.148 103.484C202.008 104.297 201.938 105.164 201.938 106.086ZM229.734 111.453L234.422 93.6406H239.367L237.609 102.57L232.969 119H229.008L229.734 111.453ZM227.883 93.6406L230.789 111.312L231.117 119H226.312L220.312 93.6406H227.883ZM243.539 110.938L246.469 93.6406H254.039L248.086 119H243.281L243.539 110.938ZM239.93 93.6406L244.664 111.406L245.391 119H241.383L236.836 102.617L235.148 93.6406H239.93ZM269.18 119.469C267.117 119.469 265.273 119.148 263.648 118.508C262.023 117.852 260.648 116.953 259.523 115.812C258.414 114.672 257.562 113.359 256.969 111.875C256.391 110.391 256.102 108.82 256.102 107.164V106.273C256.102 104.414 256.359 102.695 256.875 101.117C257.391 99.5234 258.156 98.1328 259.172 96.9453C260.188 95.7578 261.461 94.8359 262.992 94.1797C264.523 93.5078 266.305 93.1719 268.336 93.1719C270.133 93.1719 271.742 93.4609 273.164 94.0391C274.586 94.6172 275.789 95.4453 276.773 96.5234C277.773 97.6016 278.531 98.9062 279.047 100.438C279.578 101.969 279.844 103.688 279.844 105.594V108.805H259.125V103.859H272.133V103.25C272.148 102.406 272 101.688 271.688 101.094C271.391 100.5 270.953 100.047 270.375 99.7344C269.797 99.4219 269.094 99.2656 268.266 99.2656C267.406 99.2656 266.695 99.4531 266.133 99.8281C265.586 100.203 265.156 100.719 264.844 101.375C264.547 102.016 264.336 102.758 264.211 103.602C264.086 104.445 264.023 105.336 264.023 106.273V107.164C264.023 108.102 264.148 108.953 264.398 109.719C264.664 110.484 265.039 111.141 265.523 111.688C266.023 112.219 266.617 112.633 267.305 112.93C268.008 113.227 268.805 113.375 269.695 113.375C270.773 113.375 271.836 113.172 272.883 112.766C273.93 112.359 274.828 111.688 275.578 110.75L279.164 115.016C278.648 115.75 277.914 116.461 276.961 117.148C276.023 117.836 274.898 118.398 273.586 118.836C272.273 119.258 270.805 119.469 269.18 119.469ZM291.023 99.9219V119H283.125V93.6406H290.508L291.023 99.9219ZM298.523 93.4531L298.383 100.789C298.07 100.758 297.648 100.719 297.117 100.672C296.586 100.625 296.141 100.602 295.781 100.602C294.859 100.602 294.062 100.711 293.391 100.93C292.734 101.133 292.188 101.445 291.75 101.867C291.328 102.273 291.016 102.789 290.812 103.414C290.625 104.039 290.539 104.766 290.555 105.594L289.125 104.656C289.125 102.953 289.289 101.406 289.617 100.016C289.961 98.6094 290.445 97.3984 291.07 96.3828C291.695 95.3516 292.453 94.5625 293.344 94.0156C294.234 93.4531 295.234 93.1719 296.344 93.1719C296.734 93.1719 297.117 93.1953 297.492 93.2422C297.883 93.2891 298.227 93.3594 298.523 93.4531ZM313.055 119.469C310.992 119.469 309.148 119.148 307.523 118.508C305.898 117.852 304.523 116.953 303.398 115.812C302.289 114.672 301.438 113.359 300.844 111.875C300.266 110.391 299.977 108.82 299.977 107.164V106.273C299.977 104.414 300.234 102.695 300.75 101.117C301.266 99.5234 302.031 98.1328 303.047 96.9453C304.062 95.7578 305.336 94.8359 306.867 94.1797C308.398 93.5078 310.18 93.1719 312.211 93.1719C314.008 93.1719 315.617 93.4609 317.039 94.0391C318.461 94.6172 319.664 95.4453 320.648 96.5234C321.648 97.6016 322.406 98.9062 322.922 100.438C323.453 101.969 323.719 103.688 323.719 105.594V108.805H303V103.859H316.008V103.25C316.023 102.406 315.875 101.688 315.562 101.094C315.266 100.5 314.828 100.047 314.25 99.7344C313.672 99.4219 312.969 99.2656 312.141 99.2656C311.281 99.2656 310.57 99.4531 310.008 99.8281C309.461 100.203 309.031 100.719 308.719 101.375C308.422 102.016 308.211 102.758 308.086 103.602C307.961 104.445 307.898 105.336 307.898 106.273V107.164C307.898 108.102 308.023 108.953 308.273 109.719C308.539 110.484 308.914 111.141 309.398 111.688C309.898 112.219 310.492 112.633 311.18 112.93C311.883 113.227 312.68 113.375 313.57 113.375C314.648 113.375 315.711 113.172 316.758 112.766C317.805 112.359 318.703 111.688 319.453 110.75L323.039 115.016C322.523 115.75 321.789 116.461 320.836 117.148C319.898 117.836 318.773 118.398 317.461 118.836C316.148 119.258 314.68 119.469 313.055 119.469ZM341.508 113.188V83H349.453V119H342.328L341.508 113.188ZM325.945 106.625V106.133C325.945 104.211 326.156 102.461 326.578 100.883C327 99.2891 327.625 97.9219 328.453 96.7812C329.281 95.625 330.312 94.7344 331.547 94.1094C332.781 93.4844 334.203 93.1719 335.812 93.1719C337.25 93.1719 338.508 93.5078 339.586 94.1797C340.664 94.8359 341.586 95.7578 342.352 96.9453C343.117 98.1328 343.742 99.5234 344.227 101.117C344.711 102.695 345.078 104.398 345.328 106.227V106.812C345.078 108.531 344.711 110.156 344.227 111.688C343.742 113.203 343.117 114.547 342.352 115.719C341.586 116.891 340.656 117.812 339.562 118.484C338.484 119.141 337.219 119.469 335.766 119.469C334.156 119.469 332.734 119.148 331.5 118.508C330.281 117.867 329.258 116.969 328.43 115.812C327.617 114.656 327 113.297 326.578 111.734C326.156 110.172 325.945 108.469 325.945 106.625ZM333.844 106.133V106.625C333.844 107.578 333.906 108.461 334.031 109.273C334.156 110.086 334.367 110.805 334.664 111.43C334.977 112.039 335.383 112.516 335.883 112.859C336.398 113.203 337.031 113.375 337.781 113.375C338.797 113.375 339.633 113.133 340.289 112.648C340.961 112.164 341.453 111.477 341.766 110.586C342.094 109.695 342.234 108.648 342.188 107.445V105.594C342.219 104.562 342.148 103.656 341.977 102.875C341.805 102.078 341.531 101.414 341.156 100.883C340.797 100.352 340.336 99.9531 339.773 99.6875C339.227 99.4062 338.578 99.2656 337.828 99.2656C337.094 99.2656 336.469 99.4375 335.953 99.7812C335.453 100.125 335.047 100.609 334.734 101.234C334.422 101.844 334.195 102.57 334.055 103.414C333.914 104.242 333.844 105.148 333.844 106.133ZM380.719 92.0469L372.398 119H363.562L376.102 84.875H381.703L380.719 92.0469ZM387.609 119L379.266 92.0469L378.188 84.875H383.859L396.469 119H387.609ZM387.281 106.273V112.625H369.773V106.273H387.281ZM405.445 98.5156V128.75H397.547V93.6406H404.906L405.445 98.5156ZM421.008 106.016V106.508C421.008 108.352 420.797 110.062 420.375 111.641C419.953 113.219 419.328 114.594 418.5 115.766C417.672 116.938 416.641 117.852 415.406 118.508C414.188 119.148 412.773 119.469 411.164 119.469C409.648 119.469 408.344 119.133 407.25 118.461C406.156 117.789 405.242 116.859 404.508 115.672C403.773 114.484 403.18 113.125 402.727 111.594C402.273 110.062 401.914 108.445 401.648 106.742V106.109C401.914 104.281 402.273 102.586 402.727 101.023C403.18 99.4453 403.773 98.0703 404.508 96.8984C405.242 95.7266 406.148 94.8125 407.227 94.1562C408.32 93.5 409.625 93.1719 411.141 93.1719C412.75 93.1719 414.164 93.4766 415.383 94.0859C416.617 94.6953 417.648 95.5703 418.477 96.7109C419.32 97.8359 419.953 99.1875 420.375 100.766C420.797 102.344 421.008 104.094 421.008 106.016ZM413.109 106.508V106.016C413.109 105.031 413.039 104.133 412.898 103.32C412.758 102.492 412.531 101.773 412.219 101.164C411.922 100.555 411.523 100.086 411.023 99.7578C410.523 99.4297 409.906 99.2656 409.172 99.2656C408.328 99.2656 407.617 99.3984 407.039 99.6641C406.477 99.9141 406.023 100.305 405.68 100.836C405.352 101.352 405.117 102 404.977 102.781C404.852 103.547 404.797 104.445 404.812 105.477V107.398C404.781 108.586 404.898 109.633 405.164 110.539C405.43 111.43 405.891 112.125 406.547 112.625C407.203 113.125 408.094 113.375 409.219 113.375C409.969 113.375 410.594 113.203 411.094 112.859C411.594 112.5 411.992 112.008 412.289 111.383C412.586 110.742 412.797 110.008 412.922 109.18C413.047 108.352 413.109 107.461 413.109 106.508ZM432.492 98.5156V128.75H424.594V93.6406H431.953L432.492 98.5156ZM448.055 106.016V106.508C448.055 108.352 447.844 110.062 447.422 111.641C447 113.219 446.375 114.594 445.547 115.766C444.719 116.938 443.688 117.852 442.453 118.508C441.234 119.148 439.82 119.469 438.211 119.469C436.695 119.469 435.391 119.133 434.297 118.461C433.203 117.789 432.289 116.859 431.555 115.672C430.82 114.484 430.227 113.125 429.773 111.594C429.32 110.062 428.961 108.445 428.695 106.742V106.109C428.961 104.281 429.32 102.586 429.773 101.023C430.227 99.4453 430.82 98.0703 431.555 96.8984C432.289 95.7266 433.195 94.8125 434.273 94.1562C435.367 93.5 436.672 93.1719 438.188 93.1719C439.797 93.1719 441.211 93.4766 442.43 94.0859C443.664 94.6953 444.695 95.5703 445.523 96.7109C446.367 97.8359 447 99.1875 447.422 100.766C447.844 102.344 448.055 104.094 448.055 106.016ZM440.156 106.508V106.016C440.156 105.031 440.086 104.133 439.945 103.32C439.805 102.492 439.578 101.773 439.266 101.164C438.969 100.555 438.57 100.086 438.07 99.7578C437.57 99.4297 436.953 99.2656 436.219 99.2656C435.375 99.2656 434.664 99.3984 434.086 99.6641C433.523 99.9141 433.07 100.305 432.727 100.836C432.398 101.352 432.164 102 432.023 102.781C431.898 103.547 431.844 104.445 431.859 105.477V107.398C431.828 108.586 431.945 109.633 432.211 110.539C432.477 111.43 432.938 112.125 433.594 112.625C434.25 113.125 435.141 113.375 436.266 113.375C437.016 113.375 437.641 113.203 438.141 112.859C438.641 112.5 439.039 112.008 439.336 111.383C439.633 110.742 439.844 110.008 439.969 109.18C440.094 108.352 440.156 107.461 440.156 106.508Z" fill="black"/>
<path d="M1134 0H1348C1356.28 0 1363 6.71573 1363 15V148C1363 156.284 1356.28 163 1348 163H1134V0Z" fill="#009BDA"/>
<path d="M1212.5 117.5L1212.5 45.5L1284.5 45.5L1284.5 117.5L1212.5 117.5Z" fill="white" fill-opacity="0.01"/>
<path d="M1221.5 81.5125L1221.5 108.5L1275.5 108.5L1275.5 81.5" stroke="white" stroke-width="7.24" stroke-linecap="round" stroke-linejoin="round"/>
<path d="M1262 68L1248.5 54.5L1235 68" stroke="white" stroke-width="7.24" stroke-linecap="round" stroke-linejoin="round"/>
<path d="M1248.49 93.5L1248.49 54.5" stroke="white" stroke-width="7.24" stroke-linecap="round" stroke-linejoin="round"/>
</svg>
